HIERARCHY
ROOT Hips
{
	OFFSET 0.00 0.00 0.00
	CHANNELS 6 Xposition Yposition Zposition Xrotation Yrotation Zrotation
	JOINT LeftUpLeg
	{
		OFFSET 3.25772 0.00000 0.00000
		CHANNELS 3 Xrotation Yrotation Zrotation
		JOINT LeftLeg
		{
			OFFSET 0.00000 -15.35355 0.00000
			CHANNELS 3 Xrotation Yrotation Zrotation
			JOINT LeftFoot
			{
				OFFSET 0.00000 -16.48949 0.00000
				CHANNELS 3 Xrotation Yrotation Zrotation
				JOINT LeftToeBase
				{
					OFFSET 0.00000 -1.72224 6.42750
					CHANNELS 3 Xrotation Yrotation Zrotation
					End Site
					{
						OFFSET 0.00000 0.00000 2.95275
					}
				}
			}
		}
	}
	JOINT RightUpLeg
	{
		OFFSET -3.25772 0.00000 0.00000
		CHANNELS 3 Xrotation Yrotation Zrotation
		JOINT RightLeg
		{
			OFFSET 0.00000 -15.35355 0.00000
			CHANNELS 3 Xrotation Yrotation Zrotation
			JOINT RightFoot
			{
				OFFSET 0.00000 -16.48949 0.00000
				CHANNELS 3 Xrotation Yrotation Zrotation
				JOINT RightToeBase
				{
					OFFSET 0.00000 -1.72224 6.42750
					CHANNELS 3 Xrotation Yrotation Zrotation
					End Site
					{
						OFFSET 0.00000 0.00000 2.95275
					}
				}
			}
		}
	}
	JOINT Spine
	{
		OFFSET 0.00000 0.03937 0.00000
		CHANNELS 3 Xrotation Yrotation Zrotation
		JOINT Spine1
		{
			OFFSET 0.00000 10.14986 0.00000
			CHANNELS 3 Xrotation Yrotation Zrotation
			JOINT Neck
			{
				OFFSET 0.00000 9.84250 0.00000
				CHANNELS 3 Xrotation Yrotation Zrotation
				JOINT Head
				{
					OFFSET 0.00000 4.54023 0.00000
					CHANNELS 3 Xrotation Yrotation Zrotation
					End Site
					{
						OFFSET 0.00000 4.52755 0.00000
					}
				}
			}
			JOINT LeftShoulder
			{
				OFFSET 0.00000 9.84250 0.00000
				CHANNELS 3 Xrotation Yrotation Zrotation
				JOINT LeftArm
				{
					OFFSET 7.21510 -0.00003 0.00000
					CHANNELS 3 Xrotation Yrotation Zrotation
					JOINT LeftForeArm
					{
						OFFSET 10.66411 -0.00004 0.00000
						CHANNELS 3 Xrotation Yrotation Zrotation
						JOINT LeftHand
						{
							OFFSET 8.93656 -0.00003 0.00000
							CHANNELS 3 Xrotation Yrotation Zrotation
							JOINT L_Wrist_End
							{
								OFFSET 3.93700 -0.00001 0.00000
								CHANNELS 3 Xrotation Yrotation Zrotation
							}
						}
					}
				}
			}
			JOINT RightShoulder
			{
				OFFSET 0.00000 9.84250 0.00000
				CHANNELS 3 Xrotation Yrotation Zrotation
				JOINT RightArm
				{
					OFFSET -7.21510 -0.00003 0.00000
					CHANNELS 3 Xrotation Yrotation Zrotation
					JOINT RightForeArm
					{
						OFFSET -10.66411 -0.00004 0.00000
						CHANNELS 3 Xrotation Yrotation Zrotation
						JOINT RightHand
						{
							OFFSET -8.93656 -0.00003 0.00000
							CHANNELS 3 Xrotation Yrotation Zrotation
							JOINT R_Wrist_End
							{
								OFFSET -5.41338 -0.00002 0.00000
								CHANNELS 3 Xrotation Yrotation Zrotation
							}
						}
					}
				}
			}
		}
	}
}
MOTION
Frames: 10
Frame Time: 0.008333
 5.3467 34.0008 5.6060 -0.5055 -3.4508 -1.9963 5.0358 25.6933 7.6614 2.7889 0.0000 0.0000 -1.1878 0.7450 0.0191 -34.8003 0.0000 0.0000 6.2320 8.4073 -1.7524 3.6860 -0.0000 0.0000 -0.5469 -10.1282 0.8715 -32.3711 0.0000 -0.0000 -15.3758 -1.6116 -3.5448 26.0467 3.7556 4.0285 -21.6325 -18.2563 7.0806 -6.5168 -5.3569 -17.0189 8.7023 9.7015 17.4225 -26.6165 16.2483 -28.0183 -0.0000 -9.8913 -0.0000 -3.1347 5.3223 20.7926 -0.0000 0.0000 -0.0000 7.2537 -6.1494 -17.9088 -17.5523 -6.5771 21.1936 -0.0001 19.0867 0.0000 -18.1749 -14.5442 -18.3357 -0.0000 0.0000 -0.0000
 5.3501 34.0066 5.6064 -0.5107 -3.4555 -1.9730 5.0692 25.7769 7.6215 2.7552 0.0000 -0.0000 -1.1132 0.6454 0.0118 -34.8266 0.0000 0.0000 6.2216 8.4726 -1.7759 3.7122 0.0000 -0.0000 -0.4694 -10.1755 0.9143 -32.4517 0.0000 -0.0000 -15.3983 -1.6260 -3.5765 26.0924 3.7552 4.0471 -22.2140 -18.7135 6.7804 -5.5993 -4.9912 -16.7988 8.8349 9.7617 17.3181 -26.8233 16.3030 -27.9653 -0.0000 -9.9930 -0.0000 -2.9263 5.5104 20.7771 -0.0000 0.0000 -0.0000 7.2837 -6.1178 -17.8731 -17.6228 -6.5876 21.1195 -0.0001 19.1224 0.0000 -18.1825 -14.5608 -18.3606 -0.0000 0.0000 -0.0000
 5.3501 34.0066 5.6064 -0.5107 -3.4555 -1.9730 5.0692 25.7769 7.6215 2.7552 0.0000 -0.0000 -1.1132 0.6454 0.0118 -34.8266 0.0000 0.0000 6.2216 8.4726 -1.7759 3.7122 0.0000 -0.0000 -0.4694 -10.1755 0.9143 -32.4517 0.0000 -0.0000 -15.3983 -1.6260 -3.5765 26.0924 3.7552 4.0471 -22.2140 -18.7135 6.7804 -5.5993 -4.9912 -16.7988 8.8349 9.7617 17.3181 -26.8233 16.3030 -27.9653 -0.0000 -9.9930 -0.0000 -2.9263 5.5104 20.7771 -0.0000 0.0000 -0.0000 7.2837 -6.1178 -17.8731 -17.6228 -6.5876 21.1195 -0.0001 19.1224 0.0000 -18.1825 -14.5608 -18.3606 -0.0000 0.0000 -0.0000
 5.3505 34.0061 5.6013 -0.5108 -3.4608 -1.9615 5.0642 25.6653 7.6046 2.7887 0.0000 0.0000 -1.1512 0.7597 0.0190 -34.7833 0.0000 0.0000 6.2004 8.4806 -1.7864 3.7437 -0.0000 0.0000 -0.4909 -10.1716 0.9284 -32.4396 0.0000 -0.0000 -15.3826 -1.6450 -3.5936 26.0826 3.7459 4.0617 -22.4878 -19.0299 6.4627 -5.1417 -4.7129 -16.4250 8.7844 9.7995 17.2665 -26.7092 16.1866 -27.9819 -0.0000 -9.9028 -0.0000 -3.0081 5.4904 20.6999 -0.0000 0.0000 -0.0000 7.2997 -6.1096 -17.9009 -17.7042 -6.5963 21.1280 -0.0001 19.1462 0.0000 -18.1205 -14.5841 -18.2975 -0.0000 0.0000 -0.0000
 5.3494 34.0063 5.5998 -0.5063 -3.4643 -1.9589 5.0542 25.7005 7.6029 2.7864 -0.0000 0.0000 -1.1277 0.7641 0.0480 -34.8560 0.0000 -0.0000 6.2268 8.5350 -1.7911 3.6784 -0.0000 0.0000 -0.4527 -10.2250 0.9375 -32.4511 0.0000 -0.0000 -15.3875 -1.6367 -3.6019 26.0778 3.7589 4.0655 -22.5599 -19.1161 6.4153 -5.0203 -4.6608 -16.3892 8.8608 9.8077 17.2418 -26.7890 16.1889 -27.9795 -0.0000 -9.9185 -0.0000 -2.9546 5.4919 20.6590 -0.0000 -0.0000 0.0000 7.2837 -6.0984 -17.9022 -17.6659 -6.5977 21.1247 -0.0001 19.1253 0.0000 -18.1687 -14.5715 -18.2950 -0.0000 -0.0000 0.0000
 5.3494 34.0063 5.5998 -0.5063 -3.4643 -1.9589 5.0542 25.7005 7.6029 2.7864 -0.0000 0.0000 -1.1277 0.7641 0.0480 -34.8560 0.0000 -0.0000 6.2268 8.5350 -1.7911 3.6784 -0.0000 0.0000 -0.4527 -10.2250 0.9375 -32.4511 0.0000 -0.0000 -15.3875 -1.6367 -3.6019 26.0778 3.7589 4.0655 -22.5599 -19.1161 6.4153 -5.0203 -4.6608 -16.3892 8.8608 9.8077 17.2418 -26.7890 16.1889 -27.9795 -0.0000 -9.9185 -0.0000 -2.9546 5.4919 20.6590 -0.0000 -0.0000 0.0000 7.2837 -6.0984 -17.9022 -17.6659 -6.5977 21.1247 -0.0001 19.1253 0.0000 -18.1687 -14.5715 -18.2950 -0.0000 -0.0000 0.0000
 5.3492 34.0052 5.5976 -0.5074 -3.4642 -1.9592 5.0609 25.6627 7.6046 2.7787 -0.0000 0.0000 -1.1527 0.7589 0.0204 -34.8067 0.0000 -0.0000 6.2260 8.5169 -1.7893 3.6771 -0.0000 0.0000 -0.4737 -10.2003 0.9346 -32.4426 0.0000 -0.0000 -15.3912 -1.6358 -3.6050 26.0772 3.7591 4.0639 -22.5703 -19.1192 6.4042 -4.9928 -4.6374 -16.3841 8.8764 9.8023 17.2301 -26.7367 16.1725 -28.0016 -0.0000 -9.9243 -0.0000 -2.8935 5.4885 20.6369 -0.0000 0.0000 -0.0000 7.3200 -6.1031 -17.9011 -17.6667 -6.5956 21.1260 -0.0001 19.1526 0.0000 -18.0850 -14.5778 -18.2673 -0.0000 -0.0000 0.0000
 5.3510 34.0056 5.5963 -0.5137 -3.4567 -1.9573 5.0502 25.7311 7.6077 2.7891 0.0000 0.0000 -1.1459 0.6969 0.0333 -34.8335 0.0000 -0.0000 6.2185 8.5189 -1.7937 3.6999 -0.0000 0.0000 -0.4708 -10.2170 0.9407 -32.4718 0.0000 -0.0000 -15.3945 -1.6381 -3.6093 26.0979 3.7610 4.0698 -22.6035 -19.1524 6.3745 -4.9699 -4.6020 -16.3482 8.8618 9.7858 17.2223 -26.7443 16.1726 -28.0027 -0.0000 -9.8686 -0.0000 -2.9005 5.3847 20.5920 -0.0000 -0.0000 0.0000 7.2904 -6.1053 -17.9069 -17.6630 -6.6006 21.1173 -0.0001 19.1775 0.0000 -18.0614 -14.5954 -18.2695 -0.0000 0.0000 -0.0000
 5.3500 34.0055 5.5933 -0.5127 -3.4557 -1.9594 5.0544 25.6870 7.6034 2.7788 -0.0000 -0.0000 -1.1162 0.7355 0.0194 -34.8618 0.0000 0.0000 6.2229 8.4711 -1.7938 3.6765 -0.0000 0.0000 -0.4698 -10.1732 0.9378 -32.4463 0.0000 -0.0000 -15.3932 -1.6343 -3.6114 26.1030 3.7665 4.0704 -22.6285 -19.2013 6.3516 -4.9546 -4.5946 -16.3395 8.8276 9.7840 17.2168 -26.7579 16.1663 -28.0114 -0.0000 -9.8788 -0.0000 -2.8934 5.4417 20.6691 -0.0000 0.0000 -0.0000 7.3191 -6.1135 -17.9061 -17.6361 -6.6045 21.1225 -0.0001 19.1931 0.0000 -18.2137 -14.5483 -18.3714 -0.0000 0.0000 -0.0000
 5.3505 34.0056 5.5930 -0.5136 -3.4573 -1.9598 5.0544 25.6680 7.6055 2.7809 0.0000 0.0000 -1.1475 0.7482 -0.0009 -34.7639 0.0000 -0.0000 6.2235 8.4921 -1.7957 3.6768 -0.0000 0.0000 -0.4696 -10.1843 0.9219 -32.4144 0.0000 -0.0000 -15.3945 -1.6333 -3.6133 26.1040 3.7670 4.0691 -22.6362 -19.2130 6.3462 -4.9420 -4.5909 -16.3263 8.8456 9.7845 17.2066 -26.7308 16.1609 -28.0243 -0.0000 -9.8934 -0.0000 -2.9656 5.3929 20.6827 -0.0000 -0.0000 0.0000 7.3210 -6.1155 -17.9052 -17.6125 -6.6036 21.1237 -0.0001 19.2047 0.0000 -18.3365 -14.4555 -18.3926 -0.0000 -0.0000 0.0000
